<svg width="296" height="114" viewBox="0 0 296 114" fill="none" xmlns="http://www.w3.org/2000/svg">
<line y1="-0.5" x2="40.1658" y2="-0.5" transform="matrix(0.970976 -0.239177 0.211312 0.977419 226 11.7415)" stroke="#82C3FF"/>
<line y1="112.146" x2="296" y2="112.146" stroke="#7B95F2" stroke-width="2"/>
<line y1="-0.5" x2="32.5312" y2="-0.5" transform="matrix(0.829972 0.557805 -0.508062 0.861321 30 36.292)" stroke="#82C3FF"/>
<line y1="-0.5" x2="37.6397" y2="-0.5" transform="matrix(0.823597 -0.567175 0.517271 0.855822 57 54.4382)" stroke="#82C3FF"/>
<line y1="-0.5" x2="36.9989" y2="-0.5" transform="matrix(0.973001 -0.230799 0.203817 0.979009 87 33.0898)" stroke="#82C3FF"/>
<line y1="-0.5" x2="37.1392" y2="-0.5" transform="matrix(0.915476 0.402374 -0.359908 0.932988 123 24.5505)" stroke="#82C3FF"/>
<line y1="-0.5" x2="38.5818" y2="-0.5" transform="matrix(0.933083 0.359662 -0.320462 0.947261 156 39.4944)" stroke="#82C3FF"/>
<line y1="-0.5" x2="53.7493" y2="-0.5" transform="matrix(0.632566 -0.774507 0.732064 0.681235 193 53.3708)" stroke="#82C3FF"/>
<ellipse cx="29.5" cy="35.7584" rx="1.5" ry="1.60112" fill="#FFE895"/>
<ellipse cx="57.5" cy="53.9046" rx="1.5" ry="1.60112" fill="#FFE895"/>
<ellipse cx="87.5" cy="32.5562" rx="1.5" ry="1.60112" fill="#FFE895"/>
<ellipse cx="122.5" cy="24.0169" rx="1.5" ry="1.60112" fill="#FFE895"/>
<ellipse cx="156.5" cy="38.9607" rx="1.5" ry="1.60112" fill="#FFE895"/>
<ellipse cx="192.5" cy="52.837" rx="1.5" ry="1.60112" fill="#FFE895"/>
<ellipse cx="265.5" cy="1.60112" rx="1.5" ry="1.60112" fill="#FFE895"/>
<ellipse cx="226.5" cy="11.2078" rx="1.5" ry="1.60112" fill="#FFE895"/>
</svg>
