<svg width="23" height="27" viewBox="0 0 23 27" fill="none" xmlns="http://www.w3.org/2000/svg">
<path d="M9.85714 0C8.05 0 6.57143 1.51875 6.57143 3.375H3.28571C1.47857 3.375 0 4.89375 0 6.75H23C23 4.89375 21.5214 3.375 19.7143 3.375H16.4286C16.4286 1.51875 14.95 0 13.1429 0H9.85714ZM3.28571 10.125V26.3587C3.28571 26.73 3.54857 27 3.91 27H19.1229C19.4843 27 19.7471 26.73 19.7471 26.3587V10.125H16.4614V21.9375C16.4614 22.8825 15.7386 23.625 14.8186 23.625C13.8986 23.625 13.1757 22.8825 13.1757 21.9375V10.125H9.89V21.9375C9.89 22.8825 9.16714 23.625 8.24714 23.625C7.32714 23.625 6.60429 22.8825 6.60429 21.9375V10.125H3.31857H3.28571Z" fill="white"/>
</svg>
