<svg width="13" height="13" viewBox="0 0 13 13" fill="none" xmlns="http://www.w3.org/2000/svg">
<path d="M5.9234 2.00295C6.08039 1.48094 6.81955 1.48094 6.97654 2.00295C7.45951 3.60881 8.94972 4.68912 10.603 4.68912C10.9195 4.68912 11.1446 4.86647 11.2448 5.14334C11.2952 5.28245 11.2987 5.41644 11.2718 5.52361C11.2479 5.61858 11.1926 5.72716 11.0541 5.83587L10.7813 6.04999C9.51866 7.04111 8.99207 8.70456 9.45438 10.2417L9.59266 10.7015C9.74053 11.1932 9.16839 11.5836 8.76454 11.2666C7.40578 10.2 5.49416 10.2 4.13541 11.2666C3.73156 11.5835 3.15941 11.1932 3.30728 10.7015L3.44556 10.2417C3.90788 8.70456 3.38128 7.04111 2.1186 6.04999L1.84581 5.83587L0.850838 7.10346L1.8458 5.83587C1.7073 5.72716 1.65209 5.61858 1.62819 5.52361C1.60122 5.41644 1.60476 5.28245 1.65511 5.14334C1.7553 4.86647 1.98041 4.68912 2.29698 4.68912C3.95022 4.68912 5.44043 3.60881 5.9234 2.00295Z" fill="black" stroke="#E8FF8D" stroke-width="3"/>
</svg>
