<svg width="12" height="12" viewBox="0 0 12 12" fill="none" xmlns="http://www.w3.org/2000/svg">
<path d="M3.07522 9.72421L1.62607 9.27475L3.07522 9.72421L3.15471 9.46794C3.60547 8.01456 3.09977 6.43441 1.88894 5.51279L1.73593 5.39633C1.60783 5.29883 1.55678 5.20111 1.53414 5.11654C1.50846 5.0206 1.51002 4.90059 1.55316 4.77636C1.63823 4.5313 1.83067 4.37765 2.11058 4.37765C3.65923 4.37765 5.04554 3.37143 5.50821 1.87968L4.05905 1.43022L5.50821 1.87968C5.65806 1.39652 6.34194 1.39652 6.49179 1.87968L7.94095 1.43022L6.49179 1.87968C6.95446 3.37143 8.34077 4.37765 9.88942 4.37765C10.1693 4.37765 10.3618 4.5313 10.4468 4.77636C10.49 4.90059 10.4915 5.0206 10.4659 5.11654C10.4432 5.20111 10.3922 5.29883 10.2641 5.39633L10.1111 5.5128C8.90022 6.43441 8.39453 8.01456 8.8453 9.46794L8.92478 9.72421L10.2828 9.30302L8.92478 9.72421C9.06942 10.1906 8.53027 10.5678 8.14173 10.272C6.87633 9.3089 5.12367 9.3089 3.85826 10.272C3.46973 10.5678 2.93058 10.1906 3.07522 9.72421Z" fill="black" stroke="#E8FF8D" stroke-width="3"/>
</svg>
