<svg width="25" height="26" viewBox="0 0 25 26" fill="none" xmlns="http://www.w3.org/2000/svg">
<path d="M10.8394 0.0322084C4.86223 0.0322084 0 5.08893 0 11.3052C0 17.5214 4.86223 22.5781 10.8394 22.5781C12.6666 22.5781 14.4628 22.1272 15.9803 21.2575C16.1019 21.4097 16.2367 21.5498 16.3829 21.6763L19.4799 24.8971C19.7659 25.2317 20.1146 25.5021 20.5046 25.6915C20.8947 25.8809 21.3179 25.9854 21.7481 25.9986C22.1784 26.0118 22.6068 25.9333 23.0069 25.7681C23.407 25.6029 23.7704 25.3543 24.0748 25.0378C24.3792 24.7212 24.6181 24.3433 24.777 23.9272C24.9359 23.5111 25.0113 23.0656 24.9986 22.6181C24.986 22.1706 24.8855 21.7305 24.7034 21.3248C24.5212 20.9192 24.2613 20.5565 23.9395 20.2591L20.8426 17.0382C20.6917 16.8813 20.5256 16.741 20.347 16.6195C21.1832 15.0413 21.7097 13.2054 21.7097 11.2729C21.7097 5.05672 16.8475 0 10.8703 0L10.8394 0.0322084ZM10.8394 3.25305C15.1441 3.25305 18.5818 6.82818 18.5818 11.3052C18.5818 13.4309 17.8385 15.3956 16.5378 16.845C16.5068 16.8772 16.4758 16.9094 16.4449 16.9416C16.2986 17.068 16.1638 17.2082 16.0423 17.3603C14.6796 18.6487 12.8214 19.3895 10.8084 19.3895C6.50362 19.3895 3.06599 15.8143 3.06599 11.3374C3.06599 6.86039 6.50362 3.28526 10.8084 3.28526L10.8394 3.25305Z" fill="black" fill-opacity="0.5"/>
</svg>
