<svg width="12" height="12" viewBox="0 0 12 12" fill="none" xmlns="http://www.w3.org/2000/svg">
<path d="M3.07528 9.72401L1.62616 9.27456L3.07528 9.72401L3.15476 9.46774C3.60552 8.0144 3.09983 6.43428 1.88902 5.51268L1.73601 5.39622C1.60792 5.29872 1.55687 5.201 1.53423 5.11644C1.50856 5.02049 1.51012 4.90049 1.55325 4.77626C1.63832 4.53121 1.83076 4.37756 2.11066 4.37756C3.65928 4.37756 5.04556 3.37136 5.50822 1.87964L4.05909 1.43019L5.50822 1.87964C5.65807 1.39649 6.34193 1.39649 6.49178 1.87964L7.94091 1.43019L6.49178 1.87964C6.95444 3.37136 8.34072 4.37756 9.88934 4.37756C10.1692 4.37756 10.3617 4.53121 10.4468 4.77626C10.4899 4.90049 10.4914 5.02049 10.4658 5.11644C10.4431 5.201 10.3921 5.29872 10.264 5.39622L10.111 5.51268C8.90016 6.43428 8.39448 8.0144 8.84524 9.46775L8.92472 9.72401L10.2827 9.30283L8.92472 9.72401C9.06936 10.1904 8.53021 10.5676 8.14169 10.2718C6.87632 9.30871 5.12368 9.30871 3.85831 10.2718C3.46979 10.5676 2.93064 10.1904 3.07528 9.72401Z" fill="black" stroke="#E8FF8D" stroke-width="3"/>
</svg>
