<svg width="39" height="38" viewBox="0 0 39 38" fill="none" xmlns="http://www.w3.org/2000/svg">
<path d="M19.4059 0C8.73267 0 0 8.55 0 19C0 29.45 8.73267 38 19.4059 38C30.0792 38 38.8119 29.45 38.8119 19C38.8119 8.55 30.0792 0 19.4059 0ZM19.4059 4.75C27.4594 4.75 33.9604 11.115 33.9604 19C33.9604 26.885 27.4594 33.25 19.4059 33.25C11.3525 33.25 4.85149 26.885 4.85149 19C4.85149 11.115 11.3525 4.75 19.4059 4.75ZM16.9802 9.5V20.045L17.7564 20.6625L20.1822 23.0375L21.8317 24.8425L25.3248 21.4225L23.4812 19.8075L21.8317 18.1925V9.595H16.9802V9.5Z" fill="white"/>
</svg>
